<?xml version="1.0" standalone="no"?>
<!DOCTYPE svg PUBLIC "-//W3C//DTD SVG 20010904//EN"
 "http://www.w3.org/TR/2001/REC-SVG-20010904/DTD/svg10.dtd">
<svg version="1.0" xmlns="http://www.w3.org/2000/svg"
 width="764.000000pt" height="408.000000pt" viewBox="0 0 764.000000 408.000000"
 preserveAspectRatio="xMidYMid meet">

<g transform="translate(0.000000,408.000000) scale(0.100000,-0.100000)"
fill="#000000" stroke="none">
<path d="M1692 2158 l3 -103 53 -3 52 -3 0 -206 0 -206 -64 6 c-145 14 -334
-83 -528 -271 -146 -142 -232 -275 -269 -420 -41 -163 -10 -301 101 -439 182
-229 835 -480 1128 -434 158 24 241 85 427 311 144 175 258 281 382 353 7 5
18 -17 33 -64 27 -89 45 -90 75 0 l21 64 18 -66 c25 -92 44 -91 75 6 13 39 26
78 28 84 3 7 -2 13 -11 13 -14 0 -46 -81 -46 -119 0 -28 -18 3 -34 61 -21 75
-40 75 -62 1 -10 -32 -21 -62 -24 -66 -4 -4 -12 18 -19 49 -7 31 -9 60 -4 64
17 18 212 90 308 114 168 43 285 56 660 71 590 25 944 60 1267 126 332 67 549
152 663 260 l50 47 655 11 c360 7 688 14 728 17 l73 6 -3 31 -3 32 -240 6
c-132 4 -463 7 -735 8 -554 1 -499 8 -619 -75 -241 -167 -795 -253 -1626 -254
-148 0 -310 -5 -360 -10 -390 -44 -735 -187 -1040 -431 -44 -35 -168 -152
-275 -260 l-195 -197 -74 -22 c-142 -43 -336 -11 -546 89 -250 119 -431 265
-498 401 -28 56 -32 75 -32 145 0 65 5 90 26 135 60 126 200 251 399 354 l108
56 226 0 226 0 0 100 0 99 -57 3 -58 3 -3 208 -2 207 60 0 60 0 0 105 0 105
-240 0 -241 0 3 -102z m-2 -623 c0 -78 -2 -85 -20 -85 -18 0 -20 7 -20 85 0
78 2 85 20 85 18 0 20 -7 20 -85z"/>
<path d="M2428 2245 c-57 -19 -106 -65 -139 -131 -20 -40 -24 -65 -24 -134 0
-76 3 -91 30 -139 54 -98 140 -137 328 -149 100 -7 102 -7 111 -35 19 -52 2
-62 -115 -65 -122 -3 -156 7 -175 55 l-14 33 -85 0 -85 0 0 -125 0 -125 80 0
c77 0 81 1 90 25 5 14 13 25 16 25 4 0 31 -12 61 -26 50 -25 60 -26 161 -22
121 6 160 18 220 73 60 54 85 127 80 230 -10 178 -90 241 -323 252 -126 6
-155 18 -155 63 0 45 31 60 120 60 86 0 117 -12 145 -58 l20 -32 80 3 80 2 0
115 0 115 -68 3 c-61 3 -70 0 -87 -20 l-18 -23 -34 20 c-44 26 -229 32 -300
10z"/>
<path d="M3248 2245 c-57 -19 -106 -65 -139 -131 -20 -40 -24 -65 -24 -134 0
-76 3 -91 30 -139 54 -98 140 -137 328 -149 100 -7 102 -7 111 -35 19 -52 2
-62 -115 -65 -122 -3 -156 7 -175 55 l-14 33 -85 0 -85 0 0 -125 0 -125 80 0
c77 0 81 1 90 25 5 14 13 25 16 25 4 0 31 -12 61 -26 50 -25 60 -26 161 -22
121 6 160 18 220 73 60 54 85 127 80 230 -10 178 -90 241 -323 252 -126 6
-155 18 -155 63 0 45 31 60 120 60 86 0 117 -12 145 -58 l20 -32 80 3 80 2 0
115 0 115 -68 3 c-61 3 -70 0 -87 -20 l-18 -23 -34 20 c-44 26 -229 32 -300
10z"/>
<path d="M3910 2160 l0 -100 48 0 c26 0 53 -5 60 -12 17 -17 17 -379 0 -396
-7 -7 -34 -12 -60 -12 l-49 0 3 -102 3 -103 228 -3 227 -2 0 104 0 105 -47 3
-48 3 0 55 0 55 110 0 110 0 0 -55 0 -55 -47 -3 -48 -3 0 -105 0 -104 230 0
230 0 0 105 0 105 -48 0 c-26 0 -53 5 -60 12 -18 18 -17 381 1 396 7 6 33 12
57 14 l45 3 0 95 0 95 -227 3 -228 2 0 -99 0 -100 48 -3 47 -3 0 -55 0 -55
-110 0 -110 0 0 55 0 55 48 3 47 3 0 100 0 99 -230 0 -230 0 0 -100z"/>
<path d="M5256 2251 c-3 -5 -47 -141 -97 -302 -50 -162 -96 -300 -101 -306 -6
-7 -32 -13 -60 -13 l-49 0 3 -97 3 -98 173 -3 172 -2 0 100 0 100 -40 0 c-49
0 -57 14 -36 64 l15 36 70 0 c77 0 86 -7 93 -66 3 -27 0 -29 -34 -32 l-38 -3
0 -100 0 -99 238 2 237 3 3 93 3 92 -55 0 c-33 0 -58 5 -62 12 -5 7 -51 150
-104 318 l-97 305 -116 3 c-63 1 -118 -2 -121 -7z m77 -348 c17 -61 11 -83
-23 -83 -34 0 -41 23 -23 83 9 31 19 57 23 57 4 0 14 -26 23 -57z"/>
<path d="M4230 735 c0 -104 2 -125 15 -125 12 0 15 14 15 65 0 60 2 66 25 77
40 18 55 -3 55 -78 0 -50 3 -64 15 -64 12 0 15 14 15 66 0 83 -11 104 -53 104
-18 0 -38 -5 -45 -12 -9 -9 -12 0 -12 40 0 40 -4 52 -15 52 -13 0 -15 -21 -15
-125z"/>
<path d="M4600 735 c0 -77 4 -125 10 -125 6 0 10 5 10 10 0 6 11 3 25 -6 32
-21 78 -11 99 21 23 35 21 100 -4 125 -22 22 -79 27 -98 8 -9 -9 -12 0 -12 40
0 40 -4 52 -15 52 -13 0 -15 -21 -15 -125z m114 3 c33 -46 11 -108 -38 -108
-32 0 -46 19 -46 61 0 63 53 92 84 47z"/>
<path d="M4920 816 l0 -44 -40 5 c-49 7 -77 -14 -86 -64 -14 -76 46 -135 101
-99 14 9 25 12 25 6 0 -5 7 -10 15 -10 13 0 15 21 15 125 0 104 -2 125 -15
125 -11 0 -15 -12 -15 -44z m-16 -72 c18 -18 21 -66 6 -95 -27 -49 -100 1 -85
58 13 53 47 69 79 37z"/>
<path d="M3861 836 c-12 -14 -5 -26 16 -26 15 0 18 26 4 34 -5 3 -14 0 -20 -8z"/>
<path d="M3254 763 c3 -10 15 -49 26 -86 27 -87 45 -87 74 1 l21 62 19 -65
c26 -90 45 -88 75 8 13 39 26 78 28 85 3 6 -2 12 -11 12 -14 0 -46 -81 -46
-119 0 -28 -18 3 -34 62 -21 72 -39 74 -61 5 -9 -29 -19 -60 -22 -68 -3 -8
-13 14 -22 50 -12 46 -22 66 -35 68 -13 3 -17 -1 -12 -15z"/>
<path d="M3520 778 c0 -2 11 -39 24 -83 30 -104 50 -108 80 -17 l21 62 19 -65
c26 -92 44 -88 79 17 14 45 25 84 22 86 -14 14 -33 -13 -44 -62 -7 -31 -16
-56 -20 -56 -4 0 -15 27 -24 60 -22 78 -40 78 -63 3 -18 -60 -34 -89 -34 -62
0 36 -32 119 -45 119 -8 0 -15 -1 -15 -2z"/>
<path d="M3860 695 c0 -69 3 -85 15 -85 12 0 15 16 15 85 0 69 -3 85 -15 85
-12 0 -15 -16 -15 -85z"/>
<path d="M3946 758 c-19 -27 -7 -52 34 -73 18 -9 30 -23 30 -35 0 -17 -7 -20
-40 -20 -45 0 -54 -16 -13 -26 37 -10 77 15 81 48 3 22 -4 32 -37 52 -48 30
-47 61 0 54 20 -3 29 0 29 9 0 23 -67 16 -84 -9z"/>
<path d="M4092 768 c-24 -24 -13 -57 28 -83 47 -30 45 -55 -5 -55 -42 0 -55
-17 -20 -26 86 -21 127 64 48 101 -43 20 -42 50 1 50 16 1 31 6 34 13 5 16
-70 16 -86 0z"/>
<path d="M4437 773 c-15 -15 -5 -21 26 -16 23 3 37 0 47 -12 12 -14 12 -18 -1
-26 -8 -5 -24 -9 -36 -9 -26 0 -63 -33 -63 -55 0 -28 40 -58 68 -50 15 3 37 6
50 6 20 -1 22 3 22 62 0 81 -17 107 -69 107 -21 0 -41 -3 -44 -7z m83 -101 c0
-24 -19 -42 -46 -42 -26 0 -35 18 -22 43 12 24 68 24 68 -1z"/>
<path d="M5091 756 c-28 -30 -32 -83 -8 -119 18 -27 64 -42 97 -32 32 10 23
25 -14 25 -43 0 -66 22 -66 64 0 41 26 66 68 66 18 0 32 5 32 10 0 6 -19 10
-43 10 -33 0 -49 -6 -66 -24z"/>
<path d="M5250 762 c-13 -11 -23 -33 -27 -59 -5 -37 -2 -46 25 -73 19 -18 41
-30 57 -30 16 0 38 12 57 30 27 27 30 36 25 71 -3 22 -13 49 -23 60 -22 24
-84 25 -114 1z m88 -15 c36 -43 15 -117 -33 -117 -33 0 -60 41 -50 77 9 38 23
53 50 53 12 0 27 -6 33 -13z"/>
<path d="M5430 695 c0 -69 3 -85 15 -85 12 0 15 13 15 59 0 41 5 65 16 75 38
38 64 6 64 -78 0 -43 3 -56 15 -56 12 0 15 14 15 63 0 65 11 87 42 87 24 0 38
-38 38 -101 0 -37 4 -49 15 -49 19 0 21 103 2 140 -15 30 -66 39 -90 16 -13
-14 -16 -14 -27 -1 -15 18 -61 20 -78 3 -9 -9 -12 -9 -12 0 0 7 -7 12 -15 12
-12 0 -15 -16 -15 -85z"/>
<path d="M3783 634 c-8 -21 13 -42 28 -27 13 13 5 43 -11 43 -6 0 -13 -7 -17
-16z"/>
<path d="M5003 634 c-8 -21 13 -42 28 -27 13 13 5 43 -11 43 -6 0 -13 -7 -17
-16z"/>
</g>
</svg>
